<svg xmlns="http://www.w3.org/2000/svg" version="1.1" xmlns:xlink="http://www.w3.org/1999/xlink" xmlns:svgjs="http://svgjs.dev/svgjs" width="1500" height="1500" viewBox="0 0 1500 1500"><rect width="1500" height="1500" fill="#000000"></rect><g transform="matrix(0.6666666666666666,0,0,0.6666666666666666,249.39393939393938,571.5949163820243)"><svg viewBox="0 0 396 142" data-background-color="#eaefed" preserveAspectRatio="xMidYMid meet" height="537" width="1500" xmlns="http://www.w3.org/2000/svg" xmlns:xlink="http://www.w3.org/1999/xlink"><g id="tight-bounds" transform="matrix(1,0,0,1,0.2400000000000091,-0.23597241968559501)"><svg viewBox="0 0 395.52 142.47194483937116" height="142.47194483937116" width="395.52"><g><svg viewBox="0 0 664.3418292665879 239.30540163267656" height="142.47194483937116" width="395.52"><g transform="matrix(1,0,0,1,268.82182926658794,15.65111750933336)"><svg viewBox="0 0 395.52 208.00316661400984" height="208.00316661400984" width="395.52"><g id="textblocktransform"><svg viewBox="0 0 395.52 208.00316661400984" height="208.00316661400984" width="395.52" id="textblock"><g><svg viewBox="0 0 395.52 103.31617473435655" height="103.31617473435655" width="395.52"><g transform="matrix(1,0,0,1,0,0)"><svg width="395.52" viewBox="2.2 -33.5 169.38000000000002 44.25" height="103.31617473435655" data-palette-color="#d4840d"><path d="M2.2-32.5L2.2-33 9.3-33Q14.85-33 17.73-30.88 20.6-28.75 20.6-24.85L20.6-24.85Q20.6-22.75 19.6-21.1 18.6-19.45 16.98-18.32 15.35-17.2 13.33-16.6 11.3-16 9.3-16L9.3-16 7.4-16 7.4-3.25Q7.4-2.85 7.5-2.38 7.6-1.9 7.83-1.5 8.05-1.1 8.33-0.8 8.6-0.5 9-0.5L9-0.5 9.25-0.5 9.25 0 2.2 0 2.2-0.5 2.45-0.5Q2.8-0.5 3.1-0.8 3.4-1.1 3.6-1.5 3.8-1.9 3.9-2.38 4-2.85 4-3.25L4-3.25 4-29.9Q4-30.6 3.6-31.5 3.2-32.4 2.45-32.5L2.45-32.5 2.2-32.5ZM8.1-31.25L7.4-31.25 7.4-17.75 8.9-17.75Q10.9-17.75 12.48-18.3 14.05-18.85 15.1-19.75 16.15-20.65 16.7-21.8 17.25-22.95 17.25-24.15L17.25-24.15Q17.25-25.6 16.78-26.88 16.3-28.15 15.23-29.13 14.15-30.1 12.4-30.68 10.65-31.25 8.1-31.25L8.1-31.25ZM37.75-5.7L37.75-5.7Q37.75-4.4 37.1-3.3 36.45-2.2 35.32-1.38 34.2-0.55 32.7-0.08 31.2 0.4 29.45 0.4L29.45 0.4Q27.3 0.4 25.95-0.18 24.6-0.75 23.65-1.35L23.65-1.35Q23-1.75 22.45-2.02 21.9-2.3 21.25-2.3L21.25-2.3 21.25-6.1 21.75-6.1Q21.9-5.4 22.62-4.58 23.35-3.75 24.37-3.05 25.4-2.35 26.62-1.88 27.85-1.4 29.1-1.4L29.1-1.4Q30-1.4 30.95-1.6 31.9-1.8 32.67-2.25 33.45-2.7 33.97-3.38 34.5-4.05 34.5-5L34.5-5Q34.5-5.95 33.95-6.65 33.4-7.35 32.55-7.88 31.7-8.4 30.6-8.8 29.5-9.2 28.4-9.55L28.4-9.55Q27.1-9.95 25.77-10.45 24.45-10.95 23.4-11.63 22.35-12.3 21.7-13.28 21.05-14.25 21.05-15.6L21.05-15.6Q21.05-16.75 21.47-17.8 21.9-18.85 22.87-19.63 23.85-20.4 25.4-20.88 26.95-21.35 29.15-21.35L29.15-21.35Q31.1-21.35 32.17-21.03 33.25-20.7 33.95-20.35L33.95-20.35Q34.4-20.1 34.85-19.98 35.3-19.85 35.85-19.85L35.85-19.85 35.85-16.35 35.45-16.35Q34.55-18 32.7-18.85 30.85-19.7 28.9-19.7L28.9-19.7Q27.65-19.7 26.75-19.38 25.85-19.05 25.27-18.57 24.7-18.1 24.42-17.5 24.15-16.9 24.15-16.3L24.15-16.3Q24.15-15.45 24.62-14.85 25.1-14.25 25.92-13.8 26.75-13.35 27.77-12.95 28.8-12.55 29.95-12.2L29.95-12.2Q31.35-11.75 32.75-11.23 34.15-10.7 35.25-9.95 36.35-9.2 37.05-8.18 37.75-7.15 37.75-5.7ZM60.34-18.3L50.05 7.15Q49.34 9.25 48.27 10 47.2 10.75 46.05 10.75L46.05 10.75Q45.3 10.75 44.72 10.55 44.15 10.35 43.72 10.08 43.3 9.8 43.05 9.55 42.8 9.3 42.75 9.15L42.75 9.15 44.4 5.1Q44.65 6 44.9 6.45L44.9 6.45Q45.15 6.95 45.59 7.35 46.05 7.75 46.7 7.75L46.7 7.75Q47.9 7.75 48.59 6L48.59 6 51.05-0.15 43-18.35Q42.75-18.95 42.17-19.73 41.59-20.5 40.59-20.5L40.59-20.5 40.59-21 47.2-21 47.2-20.5Q47-20.5 46.7-20.15 46.4-19.8 46.4-19.25L46.4-19.25Q46.4-18.8 46.59-18.45L46.59-18.45 52.75-4.3 58.65-18.75Q58.8-19.1 58.8-19.4L58.8-19.4Q58.8-19.9 58.47-20.2 58.15-20.5 57.8-20.5L57.8-20.5 57.8-21 62.65-21 62.65-20.5Q61.84-20.5 61.27-19.83 60.7-19.15 60.34-18.3L60.34-18.3ZM76.29-10.3L64.94-10.3 64.94-12.8 76.29-12.8 76.29-10.3ZM98.24-31.7L98.24-31.7Q94.54-31.7 91.82-30.38 89.09-29.05 87.29-26.93 85.49-24.8 84.62-22.15 83.74-19.5 83.74-16.9L83.74-16.9Q83.74-13.95 84.89-11.13 86.04-8.3 88.07-6.13 90.09-3.95 92.79-2.63 95.49-1.3 98.64-1.3L98.64-1.3Q99.54-1.3 100.77-1.5 101.99-1.7 103.19-2.27 104.39-2.85 105.42-3.9 106.44-4.95 106.99-6.65L106.99-6.65 107.49-6.65 107.49-1.1Q106.74-1.1 105.92-0.9 105.09-0.7 104.09-0.45L104.09-0.45Q102.79-0.1 101.22 0.2 99.64 0.5 97.89 0.5L97.89 0.5Q93.54 0.5 90.24-1 86.94-2.5 84.74-4.9 82.54-7.3 81.44-10.33 80.34-13.35 80.34-16.45L80.34-16.45Q80.34-19.55 81.44-22.6 82.54-25.65 84.79-28.08 87.04-30.5 90.44-32 93.84-33.5 98.44-33.5L98.44-33.5Q100.09-33.5 101.42-33.2 102.74-32.9 103.79-32.6L103.79-32.6Q104.54-32.35 105.17-32.23 105.79-32.1 106.39-32.1L106.39-32.1 106.39-26.55 105.89-26.55Q105.59-28.1 104.79-29.13 103.99-30.15 102.92-30.7 101.84-31.25 100.62-31.48 99.39-31.7 98.24-31.7ZM129.84 0L124.99 0 124.99-2.55 124.74-2.3Q123.49-1.05 121.86-0.35 120.24 0.35 117.94 0.35L117.94 0.35Q116.19 0.35 114.94-0.05 113.69-0.45 112.89-1.18 112.09-1.9 111.71-2.85 111.34-3.8 111.34-4.85L111.34-4.85Q111.34-6.55 112.26-7.85 113.19-9.15 114.94-10.15 116.69-11.15 119.21-11.98 121.74-12.8 124.99-13.6L124.99-13.6Q124.89-15.55 124.19-16.75 123.49-17.95 122.54-18.63 121.59-19.3 120.54-19.53 119.49-19.75 118.74-19.75L118.74-19.75Q117.44-19.75 116.46-19.35 115.49-18.95 114.76-18.32 114.04-17.7 113.54-16.98 113.04-16.25 112.74-15.6L112.74-15.6 112.29-15.6 112.29-19.25Q112.69-19.3 113.04-19.5 113.39-19.7 113.89-19.9L113.89-19.9Q114.64-20.2 115.94-20.78 117.24-21.35 119.59-21.35L119.59-21.35Q122.34-21.35 124.04-20.65 125.74-19.95 126.66-18.8 127.59-17.65 127.89-16.18 128.19-14.7 128.19-13.15L128.19-13.15 128.19-3.25Q128.19-2.25 128.64-1.38 129.09-0.5 129.84-0.5L129.84-0.5 129.84 0ZM124.44-4.15L124.99-4.75 124.99-11.9 124.49-11.8Q123.29-11.5 121.56-11 119.84-10.5 118.29-9.7 116.74-8.9 115.64-7.8 114.54-6.7 114.54-5.25L114.54-5.25Q114.54-3.65 115.84-2.6 117.14-1.55 119.24-1.55L119.24-1.55Q120.89-1.55 122.14-2.27 123.39-3 124.44-4.15L124.44-4.15ZM148.34-20.4L146.84-17.35Q146.24-18.35 145.59-18.6 144.94-18.85 144.09-18.85L144.09-18.85Q143.54-18.85 142.91-18.6 142.29-18.35 141.69-17.95 141.09-17.55 140.51-17.07 139.94-16.6 139.54-16.2L139.54-16.2 139.54-3.2Q139.54-2.8 139.64-2.35 139.74-1.9 139.96-1.48 140.19-1.05 140.46-0.78 140.74-0.5 141.14-0.5L141.14-0.5 141.14 0 134.64 0 134.64-0.5Q134.99-0.5 135.29-0.78 135.59-1.05 135.81-1.48 136.04-1.9 136.14-2.35 136.24-2.8 136.24-3.2L136.24-3.2 136.24-17.15Q136.24-17.85 135.79-18.55 135.34-19.25 134.49-19.45L134.49-19.45 134.49-19.85 139.54-21.35 139.54-18.35Q139.99-18.9 140.49-19.43 140.99-19.95 141.61-20.38 142.24-20.8 142.99-21.08 143.74-21.35 144.74-21.35L144.74-21.35Q145.44-21.35 146.54-21.05 147.64-20.75 148.34-20.4L148.34-20.4ZM171.58-10.1L154.23-10.1Q154.43-8.35 155.08-6.78 155.73-5.2 156.81-4 157.88-2.8 159.43-2.08 160.98-1.35 163.03-1.35L163.03-1.35Q164.13-1.35 165.36-1.68 166.58-2 167.63-2.6 168.68-3.2 169.51-4.08 170.33-4.95 170.63-6.05L170.63-6.05 171.08-6.05 171.08-2.3Q170.78-2.3 170.41-2.1 170.03-1.9 169.53-1.6L169.53-1.6Q168.53-1 166.83-0.33 165.13 0.35 162.33 0.35L162.33 0.35Q160.08 0.35 158.06-0.3 156.03-0.95 154.48-2.3 152.93-3.65 152.01-5.75 151.08-7.85 151.08-10.75L151.08-10.75Q151.08-12.6 151.71-14.5 152.33-16.4 153.61-17.93 154.88-19.45 156.88-20.4 158.88-21.35 161.68-21.35L161.68-21.35Q164.18-21.35 166.06-20.5 167.93-19.65 169.16-18.15 170.38-16.65 170.98-14.6 171.58-12.55 171.58-10.1L171.58-10.1ZM161.48-19.7L161.48-19.7Q159.73-19.7 158.46-19 157.18-18.3 156.28-17.2 155.38-16.1 154.88-14.7 154.38-13.3 154.23-11.9L154.23-11.9 168.48-11.9Q168.43-13.35 167.96-14.75 167.48-16.15 166.63-17.25 165.78-18.35 164.48-19.03 163.18-19.7 161.48-19.7Z" opacity="1" transform="matrix(1,0,0,1,0,0)" fill="#ffffff" class="wordmark-text-0" data-fill-palette-color="primary" id="text-0"></path></svg></g></svg></g><g transform="matrix(1,0,0,1,0,127.70664400094451)"><svg viewBox="0 0 395.52 80.29652261306532" height="80.29652261306532" width="395.52"><g transform="matrix(1,0,0,1,0,0)"><svg width="395.52" viewBox="0.35 -39.65 248.72 50.5" height="80.29652261306532" data-palette-color="#000000"><path d="M11.75-35.25Q14.75-35.25 17.05-34.2 19.35-33.15 21.3-31.05L21.3-31.05 18.35-27.65Q16.8-29.05 15.33-29.75 13.85-30.45 12.2-30.45L12.2-30.45Q10.3-30.45 9.2-29.28 8.1-28.1 8.1-26.2L8.1-26.2Q8.1-24.3 9.25-23.1 10.4-21.9 13.75-20.6L13.75-20.6Q18.05-18.85 20.08-16.5 22.1-14.15 22.1-9.85L22.1-9.85Q22.1-6.9 20.75-4.48 19.4-2.05 16.88-0.65 14.35 0.75 11 0.75L11 0.75Q7.55 0.75 5-0.48 2.45-1.7 0.35-3.95L0.35-3.95 3.55-7.45Q5.35-5.85 7-5 8.65-4.15 10.6-4.15L10.6-4.15Q12.9-4.15 14.18-5.58 15.45-7 15.45-9.45L15.45-9.45Q15.45-11.6 14.33-12.98 13.2-14.35 10.15-15.5L10.15-15.5Q5.55-17.35 3.53-19.75 1.5-22.15 1.5-25.75L1.5-25.75Q1.5-28.5 2.83-30.65 4.15-32.8 6.5-34.02 8.85-35.25 11.75-35.25L11.75-35.25ZM37.25-5L39.4-1.2Q36.95 0.75 33.65 0.75L33.65 0.75Q30.2 0.75 28.4-1.23 26.6-3.2 26.6-6.6L26.6-6.6 26.6-22 23.5-22 23.5-26.45 26.6-26.45 26.6-32.3 32.75-33.05 32.75-26.45 37.75-26.45 37.15-22 32.75-22 32.75-6.6Q32.75-4.2 34.8-4.2L34.8-4.2Q35.45-4.2 35.95-4.38 36.45-4.55 37.25-5L37.25-5ZM53.59-27.1Q54.74-27.1 55.64-26.75L55.64-26.75 54.64-20.85Q53.64-21.1 52.8-21.1L52.8-21.1Q50.89-21.1 49.8-19.45 48.7-17.8 48.09-14.55L48.09-14.55 48.09 0 41.95 0 41.95-26.45 47.3-26.45 47.74-21.85Q49.59-27.1 53.59-27.1L53.59-27.1ZM67.89-27.15Q72.89-27.15 75.67-23.65 78.44-20.15 78.44-13.25L78.44-13.25Q78.44-6.65 75.64-2.95 72.84 0.75 67.89 0.75L67.89 0.75Q62.94 0.75 60.14-2.88 57.34-6.5 57.34-13.25L57.34-13.25Q57.34-19.95 60.14-23.55 62.94-27.15 67.89-27.15L67.89-27.15ZM67.89-22.5Q65.74-22.5 64.74-20.38 63.74-18.25 63.74-13.25L63.74-13.25Q63.74-8.2 64.74-6.08 65.74-3.95 67.89-3.95L67.89-3.95Q70.04-3.95 71.04-6.08 72.04-8.2 72.04-13.25L72.04-13.25Q72.04-18.3 71.04-20.4 70.04-22.5 67.89-22.5L67.89-22.5ZM95.34-27.15Q98.19-27.15 99.84-25.1 101.49-23.05 101.49-19.6L101.49-19.6 101.49 0 95.34 0 95.34-18.9Q95.34-20.8 94.81-21.63 94.29-22.45 93.29-22.45L93.29-22.45Q91.19-22.45 89.14-18.5L89.14-18.5 89.14 0 82.99 0 82.99-26.45 88.34-26.45 88.79-23Q90.14-25.1 91.67-26.13 93.19-27.15 95.34-27.15L95.34-27.15ZM124.99-29.85L126.54-25.1Q125.49-24.6 124.01-24.4 122.54-24.2 120.34-24.2L120.34-24.2Q122.44-23.2 123.46-21.53 124.49-19.85 124.49-17.4L124.49-17.4Q124.49-13.4 122.04-10.95 119.59-8.5 115.39-8.5L115.39-8.5Q114.14-8.5 112.84-8.9L112.84-8.9Q111.94-8.15 111.94-6.85L111.94-6.85Q111.94-5.85 112.49-5.35 113.04-4.85 114.54-4.85L114.54-4.85 117.34-4.85Q121.34-4.85 123.69-2.78 126.04-0.7 126.04 2.5L126.04 2.5Q126.04 6.3 123.11 8.58 120.19 10.85 114.79 10.85L114.79 10.85Q109.09 10.85 106.81 8.75 104.54 6.65 104.54 2.6L104.54 2.6 109.99 2.6Q109.99 4.75 110.99 5.65 111.99 6.55 114.84 6.55L114.84 6.55Q117.59 6.55 118.74 5.6 119.89 4.65 119.89 2.9L119.89 2.9Q119.89 1.2 118.94 0.4 117.99-0.4 115.99-0.4L115.99-0.4 114.09-0.4Q110.29-0.4 108.54-1.75 106.79-3.1 106.79-5.45L106.79-5.45Q106.79-6.8 107.51-8.03 108.24-9.25 109.49-10.2L109.49-10.2Q107.44-11.5 106.49-13.3 105.54-15.1 105.54-17.7L105.54-17.7Q105.54-22.05 108.14-24.58 110.74-27.1 115.14-27.1L115.14-27.1Q118.39-27.1 120.51-27.8 122.64-28.5 124.99-29.85L124.99-29.85ZM115.14-23Q113.39-23 112.49-21.75 111.59-20.5 111.59-17.8L111.59-17.8Q111.59-15.25 112.49-13.88 113.39-12.5 115.09-12.5L115.09-12.5Q116.84-12.5 117.69-13.73 118.54-14.95 118.54-17.85L118.54-17.85Q118.54-20.55 117.71-21.78 116.89-23 115.14-23L115.14-23ZM165.33-34.55L167.53 0 161.48 0 160.88-14.6Q160.58-22.6 160.58-26L160.58-26 160.63-28.6 155.88-3.8 149.88-3.8 144.93-28.65Q144.98-27.15 144.98-24.05L144.98-24.05Q144.98-18.8 144.78-14.4L144.78-14.4 144.23 0 138.28 0 140.48-34.55 148.48-34.55 152.98-10.2 157.18-34.55 165.33-34.55ZM172.33-26.45L178.48-26.45 178.48 0 172.33 0 172.33-26.45ZM175.38-39.65Q177.03-39.65 178.06-38.6 179.08-37.55 179.08-35.9L179.08-35.9Q179.08-34.3 178.06-33.25 177.03-32.2 175.38-32.2L175.38-32.2Q173.73-32.2 172.71-33.25 171.68-34.3 171.68-35.9L171.68-35.9Q171.68-37.55 172.71-38.6 173.73-39.65 175.38-39.65L175.38-39.65ZM196.53-27.15Q199.38-27.15 201.03-25.1 202.68-23.05 202.68-19.6L202.68-19.6 202.68 0 196.53 0 196.53-18.9Q196.53-20.8 196-21.63 195.48-22.45 194.48-22.45L194.48-22.45Q192.38-22.45 190.33-18.5L190.33-18.5 190.33 0 184.18 0 184.18-26.45 189.53-26.45 189.98-23Q191.33-25.1 192.85-26.13 194.38-27.15 196.53-27.15L196.53-27.15ZM221.18-37.7L227.33-37.05 227.33 0 221.88 0 221.58-3.05Q219.23 0.75 215.53 0.75L215.53 0.75Q211.43 0.75 209.25-2.93 207.08-6.6 207.08-13.2L207.08-13.2Q207.08-17.4 208.2-20.58 209.33-23.75 211.33-25.45 213.33-27.15 215.93-27.15L215.93-27.15Q219.13-27.15 221.18-24.5L221.18-24.5 221.18-37.7ZM217.28-3.9Q218.43-3.9 219.35-4.7 220.28-5.5 221.18-7L221.18-7 221.18-19.85Q219.58-22.55 217.53-22.55L217.53-22.55Q213.48-22.55 213.48-13.25L213.48-13.25Q213.48-8.2 214.48-6.05 215.48-3.9 217.28-3.9L217.28-3.9ZM240.37-27.15Q245.07-27.15 248.32-24.05L248.32-24.05 245.97-20.7Q244.57-21.7 243.32-22.2 242.07-22.7 240.77-22.7L240.77-22.7Q239.32-22.7 238.5-21.93 237.67-21.15 237.67-19.8L237.67-19.8Q237.67-18.45 238.6-17.63 239.52-16.8 242.32-15.7L242.32-15.7Q245.77-14.35 247.42-12.5 249.07-10.65 249.07-7.55L249.07-7.55Q249.07-3.7 246.37-1.48 243.67 0.75 239.52 0.75L239.52 0.75Q236.82 0.75 234.55-0.23 232.27-1.2 230.57-2.95L230.57-2.95 233.57-6.25Q236.37-3.8 239.27-3.8L239.27-3.8Q240.92-3.8 241.87-4.67 242.82-5.55 242.82-7.1L242.82-7.1Q242.82-8.25 242.42-8.97 242.02-9.7 241.02-10.33 240.02-10.95 238.02-11.7L238.02-11.7Q234.57-13.05 233.1-14.85 231.62-16.65 231.62-19.45L231.62-19.45Q231.62-22.8 234-24.98 236.37-27.15 240.37-27.15L240.37-27.15Z" opacity="1" transform="matrix(1,0,0,1,0,0)" fill="#ffffff" class="slogan-text-1" data-fill-palette-color="secondary" id="text-1"></path></svg></g></svg></g></svg></g></svg></g><g><svg viewBox="0 0 244.43135999999998 239.30540163267656" height="239.30540163267656" width="244.43135999999998"><g><svg xmlns="http://www.w3.org/2000/svg" xmlns:xlink="http://www.w3.org/1999/xlink" version="1.1" x="0" y="0" viewBox="12.833 13.540000000000003 69.334 67.88" enable-background="new 0 0 95 95" xml:space="preserve" height="239.30540163267656" width="244.43135999999998" class="icon-icon-0" data-fill-palette-color="accent" id="icon-0"><g fill="#d4840d" data-fill-palette-color="accent"><path d="M35.784 69.836c0.046 0 0.095-0.01 0.143-0.027 0.216 0.019 0.435 0.027 0.656 0.027 4.365 0 7.917-3.552 7.917-7.917 0-0.903-0.159-1.804-0.473-2.675-0.175-0.485-0.397-0.954-0.662-1.395-0.193-0.75-0.065-1.43 0.382-2.02 0.628-0.83 1.848-1.374 3.254-1.48v26.571c0 0.276 0.224 0.5 0.5 0.5s0.5-0.224 0.5-0.5V54.352c1.405 0.105 2.625 0.65 3.252 1.479 0.447 0.59 0.575 1.269 0.382 2.019-0.265 0.44-0.486 0.909-0.662 1.396C50.66 60.116 50.5 61.016 50.5 61.92c0 4.365 3.552 7.917 7.917 7.917 0.216 0 0.429-0.009 0.64-0.026 0.051 0.019 0.104 0.026 0.159 0.026 11.282 0 22.951-9.229 22.951-24.674 0-14.928-14.825-31.623-34.667-31.623S12.833 30.234 12.833 45.162C12.833 60.605 24.502 69.836 35.784 69.836zM48.001 14.552c19.017 0.279 33.166 16.281 33.166 30.61 0 14.743-11.049 23.584-21.788 23.673-0.076-0.032-0.162-0.045-0.246-0.036-0.234 0.024-0.474 0.037-0.716 0.037-3.813 0-6.917-3.104-6.917-6.917 0-0.787 0.141-1.573 0.414-2.337 0.159-0.443 0.365-0.872 0.609-1.271 0.024-0.039 0.043-0.082 0.057-0.127 0.303-1.076 0.119-2.1-0.529-2.955-0.822-1.086-2.313-1.766-4.05-1.877V14.552zM47.001 14.552v38.8c-1.736 0.111-3.229 0.791-4.052 1.877-0.648 0.855-0.832 1.879-0.529 2.955 0.013 0.045 0.031 0.088 0.056 0.127 0.245 0.399 0.451 0.828 0.61 1.271 0.274 0.764 0.414 1.55 0.414 2.337 0 3.813-3.103 6.917-6.917 6.917-0.242 0-0.48-0.013-0.716-0.037-0.065-0.012-0.146 0.008-0.219 0.037-10.747-0.074-21.815-8.918-21.815-23.674C13.833 30.833 27.984 14.83 47.001 14.552z" fill="#ffffff" data-fill-palette-color="accent"></path></g></svg></g></svg></g></svg></g><defs></defs></svg><rect width="395.52" height="142.47194483937116" fill="none" stroke="none" visibility="hidden"></rect></g></svg></g></svg>